{"title":"Above &amp; Beyond Live at Madison Square Garden 720p","uid":11271921,"size":2642148515,"categoryP":"video","categoryS":"music_videos","magnet":"?xt=urn:btih:3ebe0f30e71dbef246dcf6574676ba923d459e54&amp;dn=Above+%26amp%3B+Beyond+Live+at+Madison+Square+Garden+720p&amp;tr=udp%3A%2F%2Ftracker.openbittorrent.com%3A80&amp;tr=udp%3A%2F%2Fopen.demonii.com%3A1337&amp;tr=udp%3A%2F%2Ftracker.coppersurfer.tk%3A6969&amp;tr=udp%3A%2F%2Fexodus.desync.com%3A6969","seeders":0,"leechers":0,"uploader":"Liebe_Ist","files":1,"time":1414092412,"description":"Above.and.Beyond.Live.at.Madison.Square.Garden.720p.VODRip.H264-Liebe_Ist.mp4\n\nFile size                      : 2.46 GiB\nDuration                       : 1h 58mn\nOverall bit rate mode          : Variable\nOverall bit rate               : 2 961 Kbps\n\nVideo\nFormat                         : AVC\nFormat/Info                    : Advanced Video Codec\nFormat profile                 : &lt;a class=&quot;__cf_email__&quot; href=&quot;/cdn-cgi/l/email-protection&quot; data-cfemail=&quot;1058797778505c233e21&quot;&gt;[email&amp;#160;protected]&lt;/a&gt;&lt;script cf-hash='f9e31' type=&quot;text/javascript&quot;&gt;\n/* &lt;![CDATA[ */!function(){try{var t=&quot;currentScript&quot;in document?document.currentScript:function(){for(var t=document.getElementsByTagName(&quot;script&quot;),e=t.length;e--;)if(t[e].getAttribute(&quot;cf-hash&quot;))return t[e]}();if(t&amp;&amp;t.previousSibling){var e,r,n,i,c=t.previousSibling,a=c.getAttribute(&quot;data-cfemail&quot;);if(a){for(e=&quot;&quot;,r=parseInt(a.substr(0,2),16),n=2;a.length-n;n+=2)i=parseInt(a.substr(n,2),16)^r,e+=String.fromCharCode(i);e=document.createTextNode(e),c.parentNode.replaceChild(e,c)}}}catch(u){}}();/* ]]&gt; */&lt;/script&gt;\nFormat settings, CABAC         : Yes\nDuration                       : 1h 58mn\nBit rate                       : 2 767 Kbps\nMaximum bit rate               : 10.8 Mbps\nWidth                          : 1 280 pixels\nHeight                         : 720 pixels\nDisplay aspect ratio           : 16:9\nFrame rate mode                : Constant\nFrame rate                     : 29.970 fps\nScan type                      : Progressive\nBits/(Pixel*Frame)             : 0.100\nStream size                    : 2.30 GiB (93%)\n\nAudio\nFormat                         : AAC\nFormat/Info                    : Advanced Audio Codec\nFormat profile                 : LC\nCodec ID                       : 40\nDuration                       : 1h 58mn\nBit rate mode                  : Variable\nBit rate                       : 192 Kbps\nMaximum bit rate               : 202 Kbps\nChannel count                  : 2 channels\nChannel positions              : Front: L R\nSampling rate                  : 44.1 KHz\nCompression mode               : Lossy\nStream size                    : 163 MiB (6%)","torrent":{"xt":"urn:btih:3ebe0f30e71dbef246dcf6574676ba923d459e54","amp;dn":"Above+%26amp%3B+Beyond+Live+at+Madison+Square+Garden+720p","amp;tr":["udp%3A%2F%2Ftracker.openbittorrent.com%3A80","udp%3A%2F%2Fopen.demonii.com%3A1337","udp%3A%2F%2Ftracker.coppersurfer.tk%3A6969","udp%3A%2F%2Fexodus.desync.com%3A6969"],"infoHash":"3ebe0f30e71dbef246dcf6574676ba923d459e54","infoHashBuffer":{"type":"Buffer","data":[62,190,15,48,231,29,190,242,70,220,246,87,70,118,186,146,61,69,158,84]},"announce":[],"urlList":[]}}